<svg version="1.1" viewBox="0.0 0.0 439.3228346456693 423.36482939632543" fill="none" stroke="none" stroke-linecap="square" stroke-miterlimit="10" xmlns:xlink="http://www.w3.org/1999/xlink" xmlns="http://www.w3.org/2000/svg"><clipPath id="p.0"><path d="m0 0l439.32285 0l0 423.36484l-439.32285 0l0 -423.36484z" clip-rule="nonzero"/></clipPath><g clip-path="url(#p.0)"><path fill="#000000" fill-opacity="0.0" d="m0 0l439.32285 0l0 423.36484l-439.32285 0z" fill-rule="evenodd"/><path fill="#f2f2f2" d="m19.76872 34.574677l360.0 0l0 360.0l-360.0 0z" fill-rule="evenodd"/><path stroke="#31538f" stroke-width="1.3333333333333333" stroke-miterlimit="800.0" stroke-linecap="butt" d="m19.76872 34.574677l360.0 0l0 360.0l-360.0 0z" fill-rule="evenodd"/><path fill="#e653d9" fill-opacity="0.498" d="m97.32132 409.32358l102.53543 -143.74802l102.53543 143.74802z" fill-rule="evenodd"/><path stroke="#31538f" stroke-width="1.3333333333333333" stroke-miterlimit="800.0" stroke-linecap="butt" d="m97.32132 409.32358l102.53543 -143.74802l102.53543 143.74802z" fill-rule="evenodd"/><path fill="#e653d9" fill-opacity="0.498" d="m272.43015 353.87286l-58.92914 -166.44095l176.53543 -1.5275574z" fill-rule="evenodd"/><path stroke="#31538f" stroke-width="1.3333333333333333" stroke-miterlimit="800.0" stroke-linecap="butt" d="m272.43015 353.87286l-58.92914 -166.44095l176.53543 -1.5275574z" fill-rule="evenodd"/><path fill="#e653d9" fill-opacity="0.498" d="m390.12183 186.92014l-176.53543 1.5590515l56.031494 -167.44882z" fill-rule="evenodd"/><path stroke="#31538f" stroke-width="1.3333333333333333" stroke-miterlimit="800.0" stroke-linecap="butt" d="m390.12183 186.92014l-176.53543 1.5590515l56.031494 -167.44882z" fill-rule="evenodd"/><path fill="#000000" fill-opacity="0.0" d="m160.55724 8.493728l52.913376 0l0 29.889763l-52.913376 0z" fill-rule="evenodd"/><path fill="#000000" d="m175.97911 28.741852q0 0.15625 -0.03125 0.296875q-0.015625 0.125 -0.0625 0.21875q-0.03125 0.078125 -0.109375 0.125q-0.0625 0.03125 -0.140625 0.03125l-6.515625 0q-0.125 0 -0.234375 -0.03125q-0.09375 -0.03125 -0.15625 -0.09375q-0.0625 -0.078125 -0.109375 -0.21875q-0.03125 -0.140625 -0.03125 -0.34375q0 -0.171875 0.015625 -0.3125q0.015625 -0.140625 0.0625 -0.234375q0.046875 -0.109375 0.109375 -0.21875q0.078125 -0.109375 0.1875 -0.21875l2.28125 -2.421875q0.796875 -0.84375 1.265625 -1.5q0.484375 -0.671875 0.734375 -1.21875q0.265625 -0.546875 0.34375 -0.984375q0.09375 -0.453125 0.09375 -0.84375q0 -0.390625 -0.140625 -0.734375q-0.125 -0.359375 -0.359375 -0.625q-0.234375 -0.265625 -0.609375 -0.421875q-0.359375 -0.15625 -0.828125 -0.15625q-0.5625 0 -1.015625 0.15625q-0.4375 0.15625 -0.765625 0.34375q-0.328125 0.171875 -0.5625 0.328125q-0.21875 0.15625 -0.328125 0.15625q-0.0625 0 -0.109375 -0.03125q-0.046875 -0.046875 -0.078125 -0.125q-0.03125 -0.078125 -0.0625 -0.21875q-0.015625 -0.140625 -0.015625 -0.328125q0 -0.140625 0.015625 -0.234375q0.015625 -0.09375 0.03125 -0.171875q0.03125 -0.078125 0.0625 -0.140625q0.03125 -0.0625 0.140625 -0.15625q0.109375 -0.09375 0.375 -0.25q0.28125 -0.171875 0.671875 -0.328125q0.40625 -0.15625 0.890625 -0.265625q0.5 -0.109375 1.03125 -0.109375q0.859375 0 1.5 0.234375q0.640625 0.234375 1.0625 0.65625q0.421875 0.421875 0.625 0.984375q0.21875 0.546875 0.21875 1.171875q0 0.578125 -0.109375 1.140625q-0.09375 0.546875 -0.421875 1.203125q-0.3125 0.65625 -0.921875 1.453125q-0.609375 0.796875 -1.625 1.828125l-1.859375 1.953125l5.125 0q0.078125 0 0.140625 0.046875q0.0625 0.03125 0.109375 0.125q0.0625 0.078125 0.078125 0.203125q0.03125 0.109375 0.03125 0.28125zm9.846283 -5.25q0 1.359375 -0.21875 2.484375q-0.21875 1.109375 -0.71875 1.921875q-0.484375 0.8125 -1.296875 1.25q-0.796875 0.4375 -1.96875 0.4375q-1.109375 0 -1.875 -0.390625q-0.75 -0.40625 -1.21875 -1.171875q-0.46875 -0.765625 -0.671875 -1.890625q-0.1875 -1.125 -0.1875 -2.578125q0 -1.359375 0.21875 -2.484375q0.21875 -1.125 0.703125 -1.921875q0.5 -0.8125 1.296875 -1.25q0.8125 -0.4375 1.96875 -0.4375q1.125 0 1.875 0.390625q0.765625 0.390625 1.234375 1.171875q0.46875 0.765625 0.65625 1.890625q0.203125 1.125 0.203125 2.578125zm-1.609375 0.109375q0 -0.890625 -0.0625 -1.578125q-0.0625 -0.703125 -0.1875 -1.234375q-0.125 -0.546875 -0.328125 -0.9375q-0.1875 -0.390625 -0.46875 -0.640625q-0.265625 -0.25 -0.625 -0.359375q-0.34375 -0.109375 -0.78125 -0.109375q-0.765625 0 -1.25 0.359375q-0.484375 0.359375 -0.765625 1.0q-0.28125 0.640625 -0.375 1.5q-0.09375 0.859375 -0.09375 1.84375q0 1.3125 0.125 2.234375q0.140625 0.921875 0.4375 1.515625q0.296875 0.578125 0.75 0.84375q0.46875 0.265625 1.125 0.265625q0.5 0 0.890625 -0.15625q0.390625 -0.171875 0.671875 -0.46875q0.28125 -0.3125 0.453125 -0.734375q0.1875 -0.4375 0.296875 -0.953125q0.109375 -0.515625 0.140625 -1.125q0.046875 -0.609375 0.046875 -1.265625zm15.815033 5.578125q0 0.078125 -0.046875 0.140625q-0.03125 0.046875 -0.125 0.078125q-0.078125 0.03125 -0.21875 0.046875q-0.140625 0.015625 -0.359375 0.015625q-0.234375 0 -0.390625 -0.015625q-0.140625 -0.015625 -0.234375 -0.046875q-0.078125 -0.03125 -0.109375 -0.078125q-0.03125 -0.0625 -0.03125 -0.140625l0 -4.96875q0 -0.53125 -0.09375 -0.953125q-0.09375 -0.4375 -0.296875 -0.734375q-0.203125 -0.3125 -0.515625 -0.46875q-0.296875 -0.171875 -0.71875 -0.171875q-0.515625 0 -1.046875 0.40625q-0.515625 0.390625 -1.15625 1.171875l0 5.71875q0 0.078125 -0.03125 0.140625q-0.03125 0.046875 -0.125 0.078125q-0.078125 0.03125 -0.234375 0.046875q-0.140625 0.015625 -0.359375 0.015625q-0.203125 0 -0.359375 -0.015625q-0.15625 -0.015625 -0.25 -0.046875q-0.078125 -0.03125 -0.109375 -0.078125q-0.03125 -0.0625 -0.03125 -0.140625l0 -4.96875q0 -0.53125 -0.109375 -0.953125q-0.09375 -0.4375 -0.296875 -0.734375q-0.1875 -0.3125 -0.5 -0.46875q-0.296875 -0.171875 -0.71875 -0.171875q-0.515625 0 -1.046875 0.40625q-0.53125 0.390625 -1.15625 1.171875l0 5.71875q0 0.078125 -0.03125 0.140625q-0.03125 0.046875 -0.125 0.078125q-0.078125 0.03125 -0.21875 0.046875q-0.140625 0.015625 -0.375 0.015625q-0.21875 0 -0.375 -0.015625q-0.140625 -0.015625 -0.234375 -0.046875q-0.078125 -0.03125 -0.109375 -0.078125q-0.03125 -0.0625 -0.03125 -0.140625l0 -8.1875q0 -0.078125 0.03125 -0.125q0.03125 -0.046875 0.109375 -0.09375q0.078125 -0.046875 0.203125 -0.046875q0.140625 -0.015625 0.34375 -0.015625q0.203125 0 0.328125 0.015625q0.140625 0 0.203125 0.046875q0.078125 0.046875 0.109375 0.09375q0.03125 0.046875 0.03125 0.125l0 1.078125q0.6875 -0.765625 1.34375 -1.125q0.65625 -0.375 1.3125 -0.375q0.515625 0 0.921875 0.125q0.40625 0.125 0.703125 0.34375q0.3125 0.203125 0.53125 0.5q0.21875 0.296875 0.375 0.65625q0.40625 -0.4375 0.765625 -0.75q0.375 -0.3125 0.71875 -0.5q0.34375 -0.1875 0.65625 -0.28125q0.328125 -0.09375 0.65625 -0.09375q0.796875 0 1.328125 0.28125q0.546875 0.28125 0.875 0.75q0.328125 0.46875 0.46875 1.09375q0.15625 0.609375 0.15625 1.3125l0 5.171875z" fill-rule="nonzero"/><path fill="#000000" fill-opacity="0.0" d="m386.22623 177.72444l52.91339 0l0 29.889755l-52.91339 0z" fill-rule="evenodd"/><path fill="#000000" d="m401.6481 197.97256q0 0.15625 -0.03125 0.296875q-0.015625 0.125 -0.0625 0.21875q-0.03125 0.078125 -0.109375 0.125q-0.0625 0.03125 -0.140625 0.03125l-6.515625 0q-0.125 0 -0.234375 -0.03125q-0.09375 -0.03125 -0.15625 -0.09375q-0.0625 -0.078125 -0.109375 -0.21875q-0.03125 -0.140625 -0.03125 -0.34375q0 -0.171875 0.015625 -0.3125q0.015625 -0.140625 0.0625 -0.234375q0.046875 -0.109375 0.109375 -0.21875q0.078125 -0.109375 0.1875 -0.21875l2.28125 -2.421875q0.796875 -0.84375 1.265625 -1.5q0.484375 -0.671875 0.734375 -1.21875q0.265625 -0.546875 0.34375 -0.984375q0.09375 -0.453125 0.09375 -0.84375q0 -0.390625 -0.140625 -0.734375q-0.125 -0.359375 -0.359375 -0.625q-0.234375 -0.265625 -0.609375 -0.421875q-0.359375 -0.15625 -0.828125 -0.15625q-0.5625 0 -1.015625 0.15625q-0.4375 0.15625 -0.765625 0.34375q-0.328125 0.171875 -0.5625 0.328125q-0.21875 0.15625 -0.328125 0.15625q-0.0625 0 -0.109375 -0.03125q-0.046875 -0.046875 -0.078125 -0.125q-0.03125 -0.078125 -0.0625 -0.21875q-0.015625 -0.140625 -0.015625 -0.328125q0 -0.140625 0.015625 -0.234375q0.015625 -0.09375 0.03125 -0.171875q0.03125 -0.078125 0.0625 -0.140625q0.03125 -0.0625 0.140625 -0.15625q0.109375 -0.09375 0.375 -0.25q0.28125 -0.171875 0.671875 -0.328125q0.40625 -0.15625 0.890625 -0.265625q0.5 -0.109375 1.03125 -0.109375q0.859375 0 1.5 0.234375q0.640625 0.234375 1.0625 0.65625q0.421875 0.421875 0.625 0.984375q0.21875 0.546875 0.21875 1.171875q0 0.578125 -0.109375 1.140625q-0.09375 0.546875 -0.421875 1.203125q-0.3125 0.65625 -0.921875 1.453125q-0.609375 0.796875 -1.625 1.828125l-1.859375 1.953125l5.125 0q0.078125 0 0.140625 0.046875q0.0625 0.03125 0.109375 0.125q0.0625 0.078125 0.078125 0.203125q0.03125 0.109375 0.03125 0.28125zm9.846283 -5.25q0 1.359375 -0.21875 2.484375q-0.21875 1.109375 -0.71875 1.921875q-0.484375 0.8125 -1.296875 1.25q-0.796875 0.4375 -1.96875 0.4375q-1.109375 0 -1.875 -0.390625q-0.75 -0.40625 -1.21875 -1.171875q-0.46875 -0.765625 -0.671875 -1.890625q-0.1875 -1.125 -0.1875 -2.578125q0 -1.359375 0.21875 -2.484375q0.21875 -1.125 0.703125 -1.921875q0.5 -0.8125 1.296875 -1.25q0.8125 -0.4375 1.96875 -0.4375q1.125 0 1.875 0.390625q0.765625 0.390625 1.234375 1.171875q0.46875 0.765625 0.65625 1.890625q0.203125 1.125 0.203125 2.578125zm-1.609375 0.109375q0 -0.890625 -0.0625 -1.578125q-0.0625 -0.703125 -0.1875 -1.234375q-0.125 -0.546875 -0.328125 -0.9375q-0.1875 -0.390625 -0.46875 -0.640625q-0.265625 -0.25 -0.625 -0.359375q-0.34375 -0.109375 -0.78125 -0.109375q-0.765625 0 -1.25 0.359375q-0.484375 0.359375 -0.765625 1.0q-0.28125 0.640625 -0.375 1.5q-0.09375 0.859375 -0.09375 1.84375q0 1.3125 0.125 2.234375q0.140625 0.921875 0.4375 1.515625q0.296875 0.578125 0.75 0.84375q0.46875 0.265625 1.125 0.265625q0.5 0 0.890625 -0.15625q0.390625 -0.171875 0.671875 -0.46875q0.28125 -0.3125 0.453125 -0.734375q0.1875 -0.4375 0.296875 -0.953125q0.109375 -0.515625 0.140625 -1.125q0.046875 -0.609375 0.046875 -1.265625zm15.815033 5.578125q0 0.078125 -0.046875 0.140625q-0.03125 0.046875 -0.125 0.078125q-0.078125 0.03125 -0.21875 0.046875q-0.140625 0.015625 -0.359375 0.015625q-0.234375 0 -0.390625 -0.015625q-0.140625 -0.015625 -0.234375 -0.046875q-0.078125 -0.03125 -0.109375 -0.078125q-0.03125 -0.0625 -0.03125 -0.140625l0 -4.96875q0 -0.53125 -0.09375 -0.953125q-0.09375 -0.4375 -0.296875 -0.734375q-0.203125 -0.3125 -0.515625 -0.46875q-0.296875 -0.171875 -0.71875 -0.171875q-0.515625 0 -1.046875 0.40625q-0.515625 0.390625 -1.15625 1.171875l0 5.71875q0 0.078125 -0.03125 0.140625q-0.03125 0.046875 -0.125 0.078125q-0.078125 0.03125 -0.234375 0.046875q-0.140625 0.015625 -0.359375 0.015625q-0.203125 0 -0.359375 -0.015625q-0.15625 -0.015625 -0.25 -0.046875q-0.078125 -0.03125 -0.109375 -0.078125q-0.03125 -0.0625 -0.03125 -0.140625l0 -4.96875q0 -0.53125 -0.109375 -0.953125q-0.09375 -0.4375 -0.296875 -0.734375q-0.1875 -0.3125 -0.5 -0.46875q-0.296875 -0.171875 -0.71875 -0.171875q-0.515625 0 -1.046875 0.40625q-0.53125 0.390625 -1.15625 1.171875l0 5.71875q0 0.078125 -0.03125 0.140625q-0.03125 0.046875 -0.125 0.078125q-0.078125 0.03125 -0.21875 0.046875q-0.140625 0.015625 -0.375 0.015625q-0.21875 0 -0.375 -0.015625q-0.140625 -0.015625 -0.234375 -0.046875q-0.078125 -0.03125 -0.109375 -0.078125q-0.03125 -0.0625 -0.03125 -0.140625l0 -8.1875q0 -0.078125 0.03125 -0.125q0.03125 -0.046875 0.109375 -0.09375q0.078125 -0.046875 0.203125 -0.046875q0.140625 -0.015625 0.34375 -0.015625q0.203125 0 0.328125 0.015625q0.140625 0 0.203125 0.046875q0.078125 0.046875 0.109375 0.09375q0.03125 0.046875 0.03125 0.125l0 1.078125q0.6875 -0.765625 1.34375 -1.125q0.65625 -0.375 1.3125 -0.375q0.515625 0 0.921875 0.125q0.40625 0.125 0.703125 0.34375q0.3125 0.203125 0.53125 0.5q0.21875 0.296875 0.375 0.65625q0.40625 -0.4375 0.765625 -0.75q0.375 -0.3125 0.71875 -0.5q0.34375 -0.1875 0.65625 -0.28125q0.328125 -0.09375 0.65625 -0.09375q0.796875 0 1.328125 0.28125q0.546875 0.28125 0.875 0.75q0.328125 0.46875 0.46875 1.09375q0.15625 0.609375 0.15625 1.3125l0 5.171875z" fill-rule="nonzero"/><path fill="#ffffff" d="m187.63255 178.70605l27.086609 0l0 92.188965l-27.086609 0z" fill-rule="evenodd"/><path stroke="#31538f" stroke-width="1.3333333333333333" stroke-miterlimit="800.0" stroke-linecap="butt" d="m187.63255 178.70605l27.086609 0l0 92.188965l-27.086609 0z" fill-rule="evenodd"/><path fill="#ffffff" d="m204.69682 231.28616q0 0.078125 -0.03125 0.140625q-0.03125 0.046875 -0.109375 0.078125q-0.078125 0.03125 -0.21875 0.046875q-0.125 0.015625 -0.296875 0.015625q-0.203125 0 -0.328125 -0.015625q-0.125 -0.015625 -0.203125 -0.046875q-0.078125 -0.03125 -0.125 -0.078125q-0.03125 -0.0625 -0.03125 -0.140625l0 -1.078125q-0.640625 0.703125 -1.34375 1.09375q-0.703125 0.390625 -1.53125 0.390625q-0.890625 0 -1.53125 -0.34375q-0.640625 -0.359375 -1.046875 -0.953125q-0.390625 -0.59375 -0.578125 -1.390625q-0.171875 -0.8125 -0.171875 -1.71875q0 -1.046875 0.21875 -1.890625q0.234375 -0.859375 0.671875 -1.453125q0.453125 -0.609375 1.109375 -0.9375q0.671875 -0.328125 1.53125 -0.328125q0.71875 0 1.3125 0.328125q0.609375 0.3125 1.1875 0.921875l0 -4.765625q0 -0.0625 0.03125 -0.125q0.03125 -0.0625 0.125 -0.09375q0.09375 -0.03125 0.234375 -0.046875q0.140625 -0.03125 0.359375 -0.03125q0.21875 0 0.359375 0.03125q0.15625 0.015625 0.234375 0.046875q0.078125 0.03125 0.125 0.09375q0.046875 0.0625 0.046875 0.125l0 12.125zm-1.515625 -5.765625q-0.609375 -0.75 -1.1875 -1.140625q-0.5625 -0.40625 -1.1875 -0.40625q-0.5625 0 -0.96875 0.28125q-0.40625 0.265625 -0.65625 0.71875q-0.25 0.4375 -0.359375 1.015625q-0.109375 0.5625 -0.109375 1.140625q0 0.625 0.09375 1.21875q0.09375 0.578125 0.328125 1.046875q0.234375 0.453125 0.625 0.734375q0.390625 0.28125 0.984375 0.28125q0.296875 0 0.578125 -0.078125q0.28125 -0.09375 0.5625 -0.28125q0.296875 -0.1875 0.609375 -0.484375q0.328125 -0.3125 0.6875 -0.765625l0 -3.28125z" fill-rule="nonzero"/><path fill="#000000" fill-opacity="0.0" d="m216.57217 200.56923l0 69.85826l-25.039368 0l0 -69.85826z" fill-rule="evenodd"/><path fill="#000000" fill-opacity="0.0" d="m351.4761 229.23576l23.559052 0l0 21.826782l-23.559052 0z" fill-rule="evenodd"/><path fill="#000000" d="m363.94485 239.66202q0 0.5 -0.0625 1.0q-0.046875 0.5 -0.1875 0.96875q-0.140625 0.46875 -0.390625 0.875q-0.234375 0.40625 -0.59375 0.71875q-0.359375 0.296875 -0.859375 0.46875q-0.484375 0.171875 -1.140625 0.171875q-0.25 0 -0.5 -0.03125q-0.234375 -0.03125 -0.421875 -0.078125q-0.1875 -0.046875 -0.3125 -0.09375q-0.125 -0.0625 -0.1875 -0.109375q-0.0625 -0.0625 -0.09375 -0.140625q-0.015625 -0.09375 -0.015625 -0.25q0 -0.125 0 -0.203125q0.015625 -0.078125 0.03125 -0.109375q0.015625 -0.046875 0.046875 -0.0625q0.03125 -0.015625 0.078125 -0.015625q0.0625 0 0.171875 0.046875q0.125 0.046875 0.296875 0.09375q0.1875 0.046875 0.421875 0.09375q0.25 0.046875 0.546875 0.046875q0.5625 0 0.96875 -0.21875q0.421875 -0.21875 0.671875 -0.578125q0.265625 -0.375 0.390625 -0.859375q0.125 -0.5 0.140625 -1.03125q-0.3125 0.171875 -0.75 0.3125q-0.4375 0.140625 -1.0 0.140625q-0.625 0 -1.0625 -0.171875q-0.421875 -0.171875 -0.6875 -0.46875q-0.265625 -0.296875 -0.375 -0.703125q-0.109375 -0.40625 -0.109375 -0.90625q0 -0.5 0.140625 -0.953125q0.15625 -0.453125 0.453125 -0.796875q0.3125 -0.34375 0.796875 -0.546875q0.484375 -0.203125 1.15625 -0.203125q0.46875 0 0.828125 0.125q0.375 0.109375 0.640625 0.34375q0.265625 0.21875 0.453125 0.546875q0.1875 0.3125 0.296875 0.71875q0.125 0.390625 0.171875 0.875q0.046875 0.46875 0.046875 0.984375zm-1.015625 -0.109375q0 -0.75 -0.109375 -1.265625q-0.09375 -0.515625 -0.296875 -0.828125q-0.1875 -0.3125 -0.46875 -0.453125q-0.28125 -0.140625 -0.640625 -0.140625q-0.390625 0 -0.65625 0.140625q-0.265625 0.140625 -0.4375 0.375q-0.171875 0.21875 -0.265625 0.515625q-0.078125 0.296875 -0.078125 0.609375q0 0.34375 0.0625 0.625q0.078125 0.28125 0.234375 0.484375q0.171875 0.203125 0.4375 0.3125q0.265625 0.109375 0.65625 0.109375q0.4375 0 0.84375 -0.125q0.421875 -0.140625 0.71875 -0.359375z" fill-rule="nonzero"/><path fill="#e653d9" fill-opacity="0.498" d="m9.5755005 191.26363l176.55118 -1.5590668l-56.015747 167.44882z" fill-rule="evenodd"/><path stroke="#31538f" stroke-width="1.3333333333333333" stroke-miterlimit="800.0" stroke-linecap="butt" d="m9.5755005 191.26363l176.55118 -1.5590668l-56.015747 167.44882z" fill-rule="evenodd"/><path fill="#e653d9" fill-opacity="0.498" d="m303.69485 34.135143l-102.535446 143.74803l-102.53543 -143.74803z" fill-rule="evenodd"/><path stroke="#31538f" stroke-width="1.3333333333333333" stroke-miterlimit="800.0" stroke-linecap="butt" d="m303.69485 34.135143l-102.535446 143.74803l-102.53543 -143.74803z" fill-rule="evenodd"/><path fill="#e653d9" fill-opacity="0.498" d="m127.926506 23.02374l58.92913 166.40944l-176.53543 1.5590668z" fill-rule="evenodd"/><path stroke="#31538f" stroke-width="1.3333333333333333" stroke-miterlimit="800.0" stroke-linecap="butt" d="m127.926506 23.02374l58.92913 166.40944l-176.53543 1.5590668z" fill-rule="evenodd"/><path fill="#000000" fill-opacity="0.0" d="m214.0322 244.78886l167.65353 0.28346252" fill-rule="evenodd"/><path stroke="#000000" stroke-width="1.0" stroke-miterlimit="800.0" stroke-linecap="butt" d="m220.0322 244.79901l155.65353 0.26315308" fill-rule="evenodd"/><path fill="#000000" stroke="#000000" stroke-width="1.0" stroke-linecap="butt" d="m220.03497 243.14728l-4.5408783 1.6440582l4.5352936 1.6593933z" fill-rule="evenodd"/><path fill="#000000" stroke="#000000" stroke-width="1.0" stroke-linecap="butt" d="m375.68295 246.71391l4.5408936 -1.6440582l-4.535309 -1.6594086z" fill-rule="evenodd"/><path fill="#000000" fill-opacity="0.0" d="m232.62723 35.72066l-0.50393677 142.26772" fill-rule="evenodd"/><path stroke="#000000" stroke-width="1.0" stroke-miterlimit="800.0" stroke-linecap="butt" d="m232.60599 41.72062l-0.46144104 130.26779" fill-rule="evenodd"/><path fill="#000000" stroke="#000000" stroke-width="1.0" stroke-linecap="butt" d="m234.2577 41.72647l-1.6356506 -4.5439186l-1.6678009 4.532219z" fill-rule="evenodd"/><path fill="#000000" stroke="#000000" stroke-width="1.0" stroke-linecap="butt" d="m230.49283 171.98256l1.6356506 4.543915l1.6678009 -4.5322113z" fill-rule="evenodd"/><path fill="#000000" fill-opacity="0.0" d="m228.62964 55.105457l48.44095 0l0 21.82677l-48.44095 0z" fill-rule="evenodd"/><path fill="#000000" d="m241.16089 62.469204q0 0.109375 -0.015625 0.203125q0 0.078125 -0.015625 0.15625q-0.015625 0.078125 -0.046875 0.15625q-0.03125 0.078125 -0.0625 0.15625l-2.734375 6.296879q-0.03125 0.0625 -0.078125 0.109375q-0.03125 0.046875 -0.109375 0.078125q-0.0625 0.015625 -0.171875 0.015625q-0.09375 0.015625 -0.25 0.015625q-0.203125 0 -0.3125 -0.015625q-0.109375 -0.015625 -0.15625 -0.046875q-0.046875 -0.046875 -0.046875 -0.09375q0 -0.0625 0.046875 -0.140625l2.859375 -6.437504l-3.640625 0q-0.109375 0 -0.171875 -0.109375q-0.046875 -0.125 -0.046875 -0.328125q0 -0.109375 0.015625 -0.1875q0.015625 -0.09375 0.046875 -0.140625q0.03125 -0.0625 0.0625 -0.078125q0.046875 -0.03125 0.09375 -0.03125l4.421875 0q0.078125 0 0.140625 0.015625q0.0625 0.015625 0.09375 0.078125q0.03125 0.046875 0.046875 0.125q0.03125 0.078125 0.03125 0.203125zm2.6914062 6.515629q0 0.421875 -0.140625 0.5625q-0.125 0.125 -0.5 0.125q-0.34375 0 -0.484375 -0.125q-0.125 -0.140625 -0.125 -0.546875q0 -0.40625 0.125 -0.546875q0.140625 -0.140625 0.515625 -0.140625q0.34375 0 0.46875 0.140625q0.140625 0.125 0.140625 0.53125zm6.263672 -1.796875q0 0.609375 -0.203125 1.09375q-0.203125 0.46875 -0.578125 0.796875q-0.375 0.3125 -0.890625 0.484375q-0.515625 0.171875 -1.15625 0.171875q-0.34375 0 -0.671875 -0.046875q-0.3125 -0.046875 -0.5625 -0.125q-0.234375 -0.078125 -0.40625 -0.140625q-0.15625 -0.078125 -0.203125 -0.109375q-0.03125 -0.046875 -0.046875 -0.078125q-0.015625 -0.03125 -0.03125 -0.078125q-0.015625 -0.0625 -0.03125 -0.140625q0 -0.078125 0 -0.171875q0 -0.109375 0 -0.1875q0.015625 -0.078125 0.03125 -0.125q0.03125 -0.046875 0.0625 -0.0625q0.03125 -0.03125 0.078125 -0.03125q0.0625 0 0.171875 0.078125q0.125 0.0625 0.328125 0.15625q0.21875 0.078125 0.515625 0.15625q0.3125 0.078125 0.734375 0.078125q0.390625 0 0.71875 -0.09375q0.328125 -0.09375 0.5625 -0.296875q0.25 -0.203125 0.375 -0.5q0.140625 -0.296875 0.140625 -0.734375q0 -0.359375 -0.125 -0.640625q-0.109375 -0.28125 -0.34375 -0.46875q-0.234375 -0.1875 -0.59375 -0.265625q-0.359375 -0.09375 -0.875 -0.09375q-0.359375 0 -0.625 0.03125q-0.25 0.03125 -0.46875 0.03125q-0.15625 0 -0.234375 -0.0625q-0.0625 -0.078125 -0.0625 -0.296875l0 -3.0937538q0 -0.1875 0.078125 -0.28125q0.09375 -0.09375 0.265625 -0.09375l3.359375 0q0.046875 0 0.09375 0.03125q0.046875 0.015625 0.0625 0.078125q0.03125 0.046875 0.046875 0.125q0.015625 0.078125 0.015625 0.1875q0 0.21875 -0.0625 0.34375q-0.046875 0.109375 -0.15625 0.109375l-2.828125 0l0 2.1250038q0.203125 -0.03125 0.40625 -0.03125q0.21875 -0.015625 0.5 -0.015625q0.65625 0 1.140625 0.15625q0.484375 0.15625 0.8125 0.453125q0.328125 0.28125 0.484375 0.6875q0.171875 0.390625 0.171875 0.890625zm6.3164062 -0.015625q0 0.5 -0.15625 0.96875q-0.15625 0.453125 -0.46875 0.8125q-0.3125 0.359375 -0.796875 0.578125q-0.484375 0.203125 -1.15625 0.203125q-0.46875 0 -0.84375 -0.109375q-0.359375 -0.125 -0.625 -0.34375q-0.265625 -0.21875 -0.453125 -0.53125q-0.171875 -0.3125 -0.28125 -0.71875q-0.109375 -0.40625 -0.15625 -0.875q-0.046875 -0.484375 -0.046875 -1.046875q0 -0.484375 0.046875 -0.984375q0.0625 -0.5 0.1875 -0.953125q0.140625 -0.4687538 0.375 -0.8750038q0.234375 -0.40625 0.578125 -0.703125q0.34375 -0.3125 0.828125 -0.484375q0.5 -0.171875 1.140625 -0.171875q0.21875 0 0.4375 0.03125q0.21875 0.015625 0.40625 0.0625q0.1875 0.046875 0.3125 0.109375q0.140625 0.046875 0.171875 0.078125q0.046875 0.03125 0.0625 0.078125q0.03125 0.03125 0.03125 0.078125q0.015625 0.03125 0.015625 0.09375q0.015625 0.046875 0.015625 0.140625q0 0.09375 0 0.171875q0 0.078125 -0.03125 0.125q-0.015625 0.046875 -0.046875 0.078125q-0.03125 0.015625 -0.09375 0.015625q-0.0625 0 -0.171875 -0.03125q-0.109375 -0.046875 -0.265625 -0.09375q-0.15625 -0.046875 -0.390625 -0.09375q-0.21875 -0.046875 -0.515625 -0.046875q-0.546875 0 -0.9375 0.234375q-0.390625 0.21875 -0.640625 0.59375q-0.25 0.375 -0.375 0.8750038q-0.125 0.484375 -0.140625 1.03125q0.15625 -0.09375 0.34375 -0.171875q0.1875 -0.09375 0.40625 -0.15625q0.234375 -0.078125 0.484375 -0.125q0.265625 -0.046875 0.546875 -0.046875q0.609375 0 1.03125 0.171875q0.421875 0.171875 0.6875 0.46875q0.265625 0.28125 0.375 0.6875q0.109375 0.40625 0.109375 0.875zm-1.015625 0.09375q0 -0.34375 -0.078125 -0.625q-0.0625 -0.28125 -0.21875 -0.46875q-0.15625 -0.1875 -0.421875 -0.296875q-0.265625 -0.109375 -0.65625 -0.109375q-0.21875 0 -0.4375 0.046875q-0.203125 0.03125 -0.40625 0.109375q-0.203125 0.0625 -0.390625 0.15625q-0.1875 0.078125 -0.34375 0.1875q0 0.75 0.09375 1.265625q0.109375 0.515625 0.28125 0.828125q0.1875 0.296875 0.46875 0.4375q0.28125 0.125 0.640625 0.125q0.375 0 0.65625 -0.140625q0.28125 -0.140625 0.453125 -0.375q0.1875 -0.234375 0.265625 -0.53125q0.09375 -0.296875 0.09375 -0.609375z" fill-rule="nonzero"/><path fill="#000000" fill-opacity="0.0" d="m202.07648 41.4416l-1.1653442 135.30708" fill-rule="evenodd"/><path stroke="#000000" stroke-width="1.0" stroke-miterlimit="800.0" stroke-linecap="butt" stroke-dasharray="1.0,3.0" d="m202.02481 47.44138l-1.0620117 123.30754" fill-rule="evenodd"/><path fill="#000000" stroke="#000000" stroke-width="1.0" stroke-linecap="butt" d="m203.67648 47.455605l-1.6125946 -4.5521545l-1.6907501 4.5237045z" fill-rule="evenodd"/><path fill="#000000" stroke="#000000" stroke-width="1.0" stroke-linecap="butt" d="m199.31113 170.73468l1.6125946 4.5521545l1.6907501 -4.523697z" fill-rule="evenodd"/><path fill="#000000" fill-opacity="0.0" d="m226.47203 92.8701l-26.236221 83.2126" fill-rule="evenodd"/><path stroke="#000000" stroke-width="1.0" stroke-miterlimit="800.0" stroke-linecap="butt" stroke-dasharray="1.0,3.0" d="m224.66783 98.59243l-22.627823 71.76795" fill-rule="evenodd"/><path fill="#000000" stroke="#000000" stroke-width="1.0" stroke-linecap="butt" d="m226.24312 99.089096l-0.2106781 -4.824745l-2.9398956 3.831398z" fill-rule="evenodd"/><path fill="#000000" stroke="#000000" stroke-width="1.0" stroke-linecap="butt" d="m200.46472 169.86371l0.2106781 4.824753l2.9398956 -3.8314056z" fill-rule="evenodd"/><path fill="#000000" fill-opacity="0.0" d="m182.29622 132.4305l19.244095 42.992126" fill-rule="evenodd"/><path stroke="#000000" stroke-width="1.0" stroke-miterlimit="800.0" stroke-linecap="butt" stroke-dasharray="1.0,3.0" d="m184.74756 137.90689l14.341415 32.039337" fill-rule="evenodd"/><path fill="#000000" stroke="#000000" stroke-width="1.0" stroke-linecap="butt" d="m186.25514 137.23207l-3.3616486 -3.4672394l0.34648132 4.8168945z" fill-rule="evenodd"/><path fill="#000000" stroke="#000000" stroke-width="1.0" stroke-linecap="butt" d="m197.58139 170.62106l3.3616486 3.4672394l-0.34648132 -4.8168945z" fill-rule="evenodd"/><path fill="#000000" fill-opacity="0.0" d="m181.01872 186.53766l-162.74016 -149.51181" fill-rule="evenodd"/><path stroke="#000000" stroke-width="1.3333333333333333" stroke-miterlimit="800.0" stroke-linecap="butt" d="m181.01872 186.53767l-156.84894 -144.09947" fill-rule="evenodd"/><path fill="#000000" stroke="#000000" stroke-width="1.3333333333333333" stroke-linecap="butt" d="m25.659742 40.81641l-5.9457817 -2.4718437l2.9658623 5.715416z" fill-rule="evenodd"/><path fill="#000000" fill-opacity="0.0" d="m184.31541 189.83435l-165.35434 202.55118" fill-rule="evenodd"/><path stroke="#000000" stroke-width="1.3333333333333333" stroke-miterlimit="800.0" stroke-linecap="butt" d="m184.31541 189.83434l-160.2952 196.35402" fill-rule="evenodd"/><path fill="#000000" stroke="#000000" stroke-width="1.3333333333333333" stroke-linecap="butt" d="m22.314194 384.79562l-2.120453 6.079956l5.532488 -3.2945251z" fill-rule="evenodd"/><path fill="#000000" fill-opacity="0.0" d="m218.60109 186.53775l159.68504 209.16534" fill-rule="evenodd"/><path stroke="#000000" stroke-width="1.3333333333333333" stroke-miterlimit="800.0" stroke-linecap="butt" d="m218.60109 186.53775l154.83049 202.80661" fill-rule="evenodd"/><path fill="#000000" stroke="#000000" stroke-width="1.3333333333333333" stroke-linecap="butt" d="m371.68112 390.6808l5.4222107 3.4730225l-1.9212341 -6.145813z" fill-rule="evenodd"/><path fill="#000000" fill-opacity="0.0" d="m219.26042 187.85625l157.73228 -151.49606" fill-rule="evenodd"/><path stroke="#000000" stroke-width="1.3333333333333333" stroke-miterlimit="800.0" stroke-linecap="butt" d="m219.26042 187.85626l151.96251 -145.95444" fill-rule="evenodd"/><path fill="#000000" stroke="#000000" stroke-width="1.3333333333333333" stroke-linecap="butt" d="m372.7485 43.49018l2.838379 -5.7797737l-5.889496 2.6030731z" fill-rule="evenodd"/><path fill="#000000" fill-opacity="0.0" d="m198.82077 177.30656l-180.53545 -142.92914" fill-rule="evenodd"/><path stroke="#000000" stroke-width="1.3333333333333333" stroke-miterlimit="800.0" stroke-linecap="butt" d="m198.82077 177.30655l-174.26315 -137.9634" fill-rule="evenodd"/><path fill="#000000" stroke="#000000" stroke-width="1.3333333333333333" stroke-linecap="butt" d="m25.92462 37.616474l-6.111046 -2.0291443l3.3770237 5.4825172z" fill-rule="evenodd"/><path fill="#000000" fill-opacity="0.0" d="m202.77684 176.64719l174.20473 -139.65353" fill-rule="evenodd"/><path stroke="#000000" stroke-width="1.3333333333333333" stroke-miterlimit="800.0" stroke-linecap="butt" d="m202.77684 176.64719l167.96288 -134.64966" fill-rule="evenodd"/><path fill="#000000" stroke="#000000" stroke-width="1.3333333333333333" stroke-linecap="butt" d="m372.11722 43.71585l3.3435364 -5.50301l-6.098572 2.066372z" fill-rule="evenodd"/><path fill="#000000" fill-opacity="0.0" d="m199.48027 264.3397l-181.82677 130.01575" fill-rule="evenodd"/><path stroke="#000000" stroke-width="1.3333333333333333" stroke-miterlimit="800.0" stroke-linecap="butt" d="m199.48027 264.33972l-175.31926 125.36249" fill-rule="evenodd"/><path fill="#000000" stroke="#000000" stroke-width="1.3333333333333333" stroke-linecap="butt" d="m22.880032 387.9108l-3.6409721 5.3108826l6.2029247 -1.7279968z" fill-rule="evenodd"/><path fill="#000000" fill-opacity="0.0" d="m201.45819 266.3175l173.5433 124.75589" fill-rule="evenodd"/><path stroke="#000000" stroke-width="1.3333333333333333" stroke-miterlimit="800.0" stroke-linecap="butt" d="m201.45819 266.31747l167.04758 120.0863" fill-rule="evenodd"/><path fill="#000000" stroke="#000000" stroke-width="1.3333333333333333" stroke-linecap="butt" d="m367.22028 388.192l6.1985474 1.7436523l-3.6275635 -5.3200684z" fill-rule="evenodd"/><path fill="#000000" fill-opacity="0.0" d="m304.23285 155.46632l3.3070984 19.779541" fill-rule="evenodd"/><path stroke="#bf9000" stroke-width="6.0" stroke-miterlimit="800.0" stroke-linecap="butt" d="m304.23285 155.46632l3.3070984 19.779541" fill-rule="evenodd"/><path fill="#000000" fill-opacity="0.0" d="m170.14667 136.44208l21.102371 -9.228348" fill-rule="evenodd"/><path stroke="#bf9000" stroke-width="6.0" stroke-miterlimit="800.0" stroke-linecap="butt" d="m170.14667 136.44208l21.102371 -9.228348" fill-rule="evenodd"/><path fill="#000000" fill-opacity="0.0" d="m188.74829 41.398685l23.748032 0" fill-rule="evenodd"/><path stroke="#bf9000" stroke-width="6.0" stroke-miterlimit="800.0" stroke-linecap="butt" d="m188.74829 41.398685l23.748032 0" fill-rule="evenodd"/><path fill="#000000" fill-opacity="0.0" d="m313.4636 113.927666l11.874023 15.842522" fill-rule="evenodd"/><path stroke="#bf9000" stroke-width="6.0" stroke-miterlimit="800.0" stroke-linecap="butt" d="m313.4636 113.927666l11.874023 15.842522" fill-rule="evenodd"/><path fill="#000000" fill-opacity="0.0" d="m217.19983 86.23546l23.748032 8.566933" fill-rule="evenodd"/><path stroke="#bf9000" stroke-width="6.0" stroke-miterlimit="800.0" stroke-linecap="butt" d="m217.19983 86.23546l23.748032 8.566933" fill-rule="evenodd"/><path fill="#000000" fill-opacity="0.0" d="m96.540436 200.96083l5.921257 19.118103" fill-rule="evenodd"/><path stroke="#bf9000" stroke-width="6.0" stroke-miterlimit="800.0" stroke-linecap="butt" d="m96.540436 200.96083l5.921257 19.118103" fill-rule="evenodd"/><path fill="#000000" fill-opacity="0.0" d="m240.2769 148.8727l10.551178 6.5826874" fill-rule="evenodd"/><path stroke="#bf9000" stroke-width="6.0" stroke-miterlimit="800.0" stroke-linecap="butt" d="m240.2769 148.8727l10.551178 6.5826874" fill-rule="evenodd"/><path fill="#000000" fill-opacity="0.0" d="m133.46355 118.542854l13.196838 -8.566925" fill-rule="evenodd"/><path stroke="#bf9000" stroke-width="6.0" stroke-miterlimit="800.0" stroke-linecap="butt" d="m133.46355 118.542854l13.196838 -8.566925" fill-rule="evenodd"/><path fill="#000000" fill-opacity="0.0" d="m157.19977 225.35625l10.551178 7.9055176" fill-rule="evenodd"/><path stroke="#bf9000" stroke-width="6.0" stroke-miterlimit="800.0" stroke-linecap="butt" d="m157.19977 225.35625l10.551178 7.9055176" fill-rule="evenodd"/><path fill="#000000" fill-opacity="0.0" d="m260.05698 266.23547l10.551178 -5.259857" fill-rule="evenodd"/><path stroke="#bf9000" stroke-width="6.0" stroke-miterlimit="800.0" stroke-linecap="butt" d="m260.05698 266.23547l10.551178 -5.259857" fill-rule="evenodd"/><path fill="#000000" fill-opacity="0.0" d="m131.48557 187.11458l2.6456757 -17.795273" fill-rule="evenodd"/><path stroke="#bf9000" stroke-width="6.0" stroke-miterlimit="800.0" stroke-linecap="butt" d="m131.48557 187.11458l2.6456757 -17.795273" fill-rule="evenodd"/><path fill="#000000" fill-opacity="0.0" d="m318.7799 122.54043l-100.09448 64.09449" fill-rule="evenodd"/><path stroke="#000000" stroke-width="1.0" stroke-miterlimit="800.0" stroke-linecap="butt" stroke-dasharray="1.0,3.0" d="m313.72708 125.77597l-89.988815 57.623383" fill-rule="evenodd"/><path fill="#000000" stroke="#000000" stroke-width="1.0" stroke-linecap="butt" d="m314.61777 127.16696l2.9310303 -3.8381958l-4.712433 1.0562057z" fill-rule="evenodd"/><path fill="#000000" stroke="#000000" stroke-width="1.0" stroke-linecap="butt" d="m222.84756 182.00838l-2.9309998 3.8381805l4.7124176 -1.0561981z" fill-rule="evenodd"/><path fill="#000000" fill-opacity="0.0" d="m89.94712 108.653015l-7.9055176 15.181099" fill-rule="evenodd"/><path stroke="#bf9000" stroke-width="6.0" stroke-miterlimit="800.0" stroke-linecap="butt" d="m89.94712 108.653015l-7.9055176 15.181099" fill-rule="evenodd"/><path fill="#000000" fill-opacity="0.0" d="m183.61493 186.49641l-96.125984 -71.08662" fill-rule="evenodd"/><path stroke="#000000" stroke-width="1.0" stroke-miterlimit="800.0" stroke-linecap="butt" stroke-dasharray="1.0,3.0" d="m178.79077 182.92886l-86.47765 -63.951523" fill-rule="evenodd"/><path fill="#000000" stroke="#000000" stroke-width="1.0" stroke-linecap="butt" d="m177.80865 184.25691l4.6308594 1.3702698l-2.6666412 -4.026352z" fill-rule="evenodd"/><path fill="#000000" stroke="#000000" stroke-width="1.0" stroke-linecap="butt" d="m93.29522 117.64931l-4.6308594 -1.3702774l2.6666489 4.026352z" fill-rule="evenodd"/><path fill="#000000" fill-opacity="0.0" d="m80.057045 258.32324l14.519684 15.842529" fill-rule="evenodd"/><path stroke="#bf9000" stroke-width="6.0" stroke-miterlimit="800.0" stroke-linecap="butt" d="m80.057045 258.32324l14.519684 15.842529" fill-rule="evenodd"/><path fill="#000000" fill-opacity="0.0" d="m186.25237 189.1338l-98.110245 76.598434" fill-rule="evenodd"/><path stroke="#000000" stroke-width="1.0" stroke-miterlimit="800.0" stroke-linecap="butt" stroke-dasharray="1.0,3.0" d="m181.52304 192.82617l-88.651596 69.213715" fill-rule="evenodd"/><path fill="#000000" stroke="#000000" stroke-width="1.0" stroke-linecap="butt" d="m182.5395 194.12811l2.5605469 -4.0946503l-4.5934753 1.4907837z" fill-rule="evenodd"/><path fill="#000000" stroke="#000000" stroke-width="1.0" stroke-linecap="butt" d="m91.85497 260.73795l-2.5605469 4.0946655l4.593483 -1.4908142z" fill-rule="evenodd"/><path fill="#000000" fill-opacity="0.0" d="m321.37582 241.83986l-11.212616 19.779526" fill-rule="evenodd"/><path stroke="#bf9000" stroke-width="6.0" stroke-miterlimit="800.0" stroke-linecap="butt" d="m321.37582 241.83986l-11.212616 19.779526" fill-rule="evenodd"/><path fill="#000000" fill-opacity="0.0" d="m316.1425 252.43059l-102.078735 -64.50394" fill-rule="evenodd"/><path stroke="#000000" stroke-width="1.0" stroke-miterlimit="800.0" stroke-linecap="butt" stroke-dasharray="1.0,3.0" d="m311.07028 249.22545l-91.934326 -58.09366" fill-rule="evenodd"/><path fill="#000000" stroke="#000000" stroke-width="1.0" stroke-linecap="butt" d="m310.18796 250.62177l4.718689 1.0278931l-2.95401 -3.8205261z" fill-rule="evenodd"/><path fill="#000000" stroke="#000000" stroke-width="1.0" stroke-linecap="butt" d="m220.01828 189.73547l-4.718689 -1.0278931l2.95401 3.8205261z" fill-rule="evenodd"/><path fill="#000000" fill-opacity="0.0" d="m200.09839 266.2767l-1.1653595 135.3071" fill-rule="evenodd"/><path stroke="#000000" stroke-width="1.0" stroke-miterlimit="800.0" stroke-linecap="butt" stroke-dasharray="1.0,3.0" d="m200.0467 272.2765l-1.0619965 123.307495" fill-rule="evenodd"/><path fill="#000000" stroke="#000000" stroke-width="1.0" stroke-linecap="butt" d="m201.69838 272.2907l-1.6125793 -4.5521545l-1.6907654 4.523712z" fill-rule="evenodd"/><path fill="#000000" stroke="#000000" stroke-width="1.0" stroke-linecap="butt" d="m197.33304 395.5698l1.6125793 4.5521545l1.6907501 -4.523712z" fill-rule="evenodd"/><path fill="#000000" fill-opacity="0.0" d="m186.11093 400.73932l23.748032 0" fill-rule="evenodd"/><path stroke="#bf9000" stroke-width="6.0" stroke-miterlimit="800.0" stroke-linecap="butt" d="m186.11093 400.73932l23.748032 0" fill-rule="evenodd"/><path fill="#000000" fill-opacity="0.0" d="m198.77968 264.95792l19.244095 42.992126" fill-rule="evenodd"/><path stroke="#000000" stroke-width="1.0" stroke-miterlimit="800.0" stroke-linecap="butt" stroke-dasharray="1.0,3.0" d="m201.23102 270.4343l14.3414 32.039337" fill-rule="evenodd"/><path fill="#000000" stroke="#000000" stroke-width="1.0" stroke-linecap="butt" d="m202.7386 269.75946l-3.3616638 -3.4672241l0.34648132 4.8168945z" fill-rule="evenodd"/><path fill="#000000" stroke="#000000" stroke-width="1.0" stroke-linecap="butt" d="m214.06483 303.14847l3.3616638 3.4672241l-0.34648132 -4.8168945z" fill-rule="evenodd"/><path fill="#000000" fill-opacity="0.0" d="m199.43906 267.5953l-26.236221 83.212585" fill-rule="evenodd"/><path stroke="#000000" stroke-width="1.0" stroke-miterlimit="800.0" stroke-linecap="butt" stroke-dasharray="1.0,3.0" d="m197.63486 273.31763l-22.627823 71.767975" fill-rule="evenodd"/><path fill="#000000" stroke="#000000" stroke-width="1.0" stroke-linecap="butt" d="m199.21014 273.8143l-0.2106781 -4.8247375l-2.9398956 3.8313904z" fill-rule="evenodd"/><path fill="#000000" stroke="#000000" stroke-width="1.0" stroke-linecap="butt" d="m173.43175 344.58893l0.2106781 4.8247375l2.9398956 -3.8313904z" fill-rule="evenodd"/><path fill="#000000" fill-opacity="0.0" d="m206.41039 313.80466l21.102371 -9.2283325" fill-rule="evenodd"/><path stroke="#bf9000" stroke-width="6.0" stroke-miterlimit="800.0" stroke-linecap="butt" d="m206.41039 313.80466l21.102371 -9.2283325" fill-rule="evenodd"/><path fill="#000000" fill-opacity="0.0" d="m161.15578 347.3343l23.748032 8.566925" fill-rule="evenodd"/><path stroke="#bf9000" stroke-width="6.0" stroke-miterlimit="800.0" stroke-linecap="butt" d="m161.15578 347.3343l23.748032 8.566925" fill-rule="evenodd"/><path fill="#000000" fill-opacity="0.0" d="m304.93347 166.05688l-89.511826 19.905502" fill-rule="evenodd"/><path stroke="#000000" stroke-width="1.0" stroke-miterlimit="800.0" stroke-linecap="butt" stroke-dasharray="1.0,3.0" d="m299.07654 167.35933l-77.79796 17.300613" fill-rule="evenodd"/><path fill="#000000" stroke="#000000" stroke-width="1.0" stroke-linecap="butt" d="m299.4351 168.97168l4.0713196 -2.597458l-4.7884216 -0.6272278z" fill-rule="evenodd"/><path fill="#000000" stroke="#000000" stroke-width="1.0" stroke-linecap="butt" d="m220.92003 183.04759l-4.071335 2.597458l4.788437 0.6272278z" fill-rule="evenodd"/><path fill="#000000" fill-opacity="0.0" d="m244.27408 152.86995l-25.574814 34.4252" fill-rule="evenodd"/><path stroke="#000000" stroke-width="1.0" stroke-miterlimit="800.0" stroke-linecap="butt" stroke-dasharray="1.0,3.0" d="m240.69597 157.6863l-18.418594 24.792526" fill-rule="evenodd"/><path fill="#000000" stroke="#000000" stroke-width="1.0" stroke-linecap="butt" d="m242.02185 158.67131l1.3804169 -4.6278534l-4.032181 2.6578217z" fill-rule="evenodd"/><path fill="#000000" stroke="#000000" stroke-width="1.0" stroke-linecap="butt" d="m220.95149 181.4938l-1.3804169 4.627838l4.032181 -2.6578217z" fill-rule="evenodd"/><path fill="#000000" fill-opacity="0.0" d="m186.91138 189.7931l-89.51181 19.905502" fill-rule="evenodd"/><path stroke="#000000" stroke-width="1.0" stroke-miterlimit="800.0" stroke-linecap="butt" stroke-dasharray="1.0,3.0" d="m181.05444 191.09555l-77.79795 17.300613" fill-rule="evenodd"/><path fill="#000000" stroke="#000000" stroke-width="1.0" stroke-linecap="butt" d="m181.413 192.7079l4.071335 -2.597458l-4.788437 -0.6272278z" fill-rule="evenodd"/><path fill="#000000" stroke="#000000" stroke-width="1.0" stroke-linecap="butt" d="m102.89794 206.78381l-4.071335 2.597458l4.788437 0.6272278z" fill-rule="evenodd"/><path fill="#000000" fill-opacity="0.0" d="m184.93333 187.815l-21.637787 40.34645" fill-rule="evenodd"/><path stroke="#000000" stroke-width="1.0" stroke-miterlimit="800.0" stroke-linecap="butt" stroke-dasharray="1.0,3.0" d="m182.09761 193.10258l-15.966339 29.771286" fill-rule="evenodd"/><path fill="#000000" stroke="#000000" stroke-width="1.0" stroke-linecap="butt" d="m183.55322 193.88324l0.6891937 -4.779907l-3.6004333 3.2186127z" fill-rule="evenodd"/><path fill="#000000" stroke="#000000" stroke-width="1.0" stroke-linecap="butt" d="m164.67566 222.09322l-0.6891937 4.7799225l3.600418 -3.218628z" fill-rule="evenodd"/><path fill="#000000" fill-opacity="0.0" d="m182.95549 188.47437l-42.740158 -75.02363" fill-rule="evenodd"/><path stroke="#000000" stroke-width="1.0" stroke-miterlimit="800.0" stroke-linecap="butt" stroke-dasharray="1.0,3.0" d="m179.98549 183.26102l-36.80017 -64.596924" fill-rule="evenodd"/><path fill="#000000" stroke="#000000" stroke-width="1.0" stroke-linecap="butt" d="m178.55031 184.07861l3.6815338 3.1255188l-0.8111725 -4.760727z" fill-rule="evenodd"/><path fill="#000000" stroke="#000000" stroke-width="1.0" stroke-linecap="butt" d="m144.6205 117.84649l-3.6815338 -3.1255188l0.8111725 4.7607346z" fill-rule="evenodd"/><path fill="#000000" fill-opacity="0.0" d="m264.05423 199.68301l-46.015762 -9.763779" fill-rule="evenodd"/><path stroke="#000000" stroke-width="1.0" stroke-miterlimit="800.0" stroke-linecap="butt" stroke-dasharray="1.0,3.0" d="m258.18488 198.43767l-34.27707 -7.273056" fill-rule="evenodd"/><path fill="#000000" stroke="#000000" stroke-width="1.0" stroke-linecap="butt" d="m257.84204 200.05342l4.7821045 -0.6738281l-4.0964355 -2.5576935z" fill-rule="evenodd"/><path fill="#000000" stroke="#000000" stroke-width="1.0" stroke-linecap="butt" d="m224.25064 189.54886l-4.7821045 0.6738281l4.0964203 2.5576935z" fill-rule="evenodd"/><path fill="#000000" fill-opacity="0.0" d="m262.03485 210.19136l4.598419 -20.440948" fill-rule="evenodd"/><path stroke="#bf9000" stroke-width="6.0" stroke-miterlimit="800.0" stroke-linecap="butt" d="m262.03485 210.19136l4.598419 -20.440948" fill-rule="evenodd"/><path fill="#000000" fill-opacity="0.0" d="m188.22997 189.79286l-55.905518 -11.086624" fill-rule="evenodd"/><path stroke="#000000" stroke-width="1.0" stroke-miterlimit="800.0" stroke-linecap="butt" stroke-dasharray="1.0,3.0" d="m182.34457 188.62572l-44.134735 -8.752335" fill-rule="evenodd"/><path fill="#000000" stroke="#000000" stroke-width="1.0" stroke-linecap="butt" d="m182.02328 190.24591l4.772705 -0.73742676l-4.1301117 -2.502945z" fill-rule="evenodd"/><path fill="#000000" stroke="#000000" stroke-width="1.0" stroke-linecap="butt" d="m138.53114 178.25319l-4.772705 0.73742676l4.1301117 2.502945z" fill-rule="evenodd"/><path fill="#000000" fill-opacity="0.0" d="m264.71365 261.66113l-46.677155 -71.086624" fill-rule="evenodd"/><path stroke="#000000" stroke-width="1.0" stroke-miterlimit="800.0" stroke-linecap="butt" stroke-dasharray="1.0,3.0" d="m261.4204 256.6457l-40.090668 -61.05577" fill-rule="evenodd"/><path fill="#000000" stroke="#000000" stroke-width="1.0" stroke-linecap="butt" d="m260.03973 257.55228l3.871521 2.8868103l-1.1101379 -4.699997z" fill-rule="evenodd"/><path fill="#000000" stroke="#000000" stroke-width="1.0" stroke-linecap="butt" d="m222.71043 194.68333l-3.8715363 -2.8868256l1.1101532 4.700012z" fill-rule="evenodd"/></g></svg>