<svg version="1.1" viewBox="0.0 0.0 448.501312335958 231.0" fill="none" stroke="none" stroke-linecap="square" stroke-miterlimit="10" xmlns:xlink="http://www.w3.org/1999/xlink" xmlns="http://www.w3.org/2000/svg"><clipPath id="p.0"><path d="m0 0l448.5013 0l0 231.0l-448.5013 0l0 -231.0z" clip-rule="nonzero"/></clipPath><g clip-path="url(#p.0)"><path fill="#000000" fill-opacity="0.0" d="m0 0l448.5013 0l0 231.0l-448.5013 0z" fill-rule="evenodd"/><path fill="#cfe2f3" d="m76.82415 8.826772l0 144.11282l313.55118 68.590454l0 -146.682z" fill-rule="evenodd"/><path stroke="#000000" stroke-width="1.0" stroke-linejoin="round" stroke-linecap="butt" d="m76.82415 8.826772l0 144.11282l313.55118 68.590454l0 -146.682z" fill-rule="evenodd"/><path fill="#000000" fill-opacity="0.0" d="m39.501312 199.50131l376.97638 -158.99213" fill-rule="evenodd"/><path stroke="#000000" stroke-width="1.0" stroke-linejoin="round" stroke-linecap="butt" stroke-dasharray="4.0,3.0" d="m39.501312 199.50131l376.97638 -158.99213" fill-rule="evenodd"/><path fill="#000000" d="m124.632545 400.39896l0 0c0 -1.6003418 -1.2973175 -2.897644 -2.8976364 -2.897644l0 0c-0.7685013 0 -1.5055313 0.30529785 -2.0489426 0.84869385c-0.54341125 0.5434265 -0.84869385 1.2804565 -0.84869385 2.0489502l0 0c0 1.6003113 1.2973175 2.897644 2.8976364 2.897644l0 0c1.6003189 0 2.8976364 -1.2973328 2.8976364 -2.897644z" fill-rule="evenodd"/><path stroke="#000000" stroke-width="1.0" stroke-linejoin="round" stroke-linecap="butt" d="m124.632545 400.39896l0 0c0 -1.6003418 -1.2973175 -2.897644 -2.8976364 -2.897644l0 0c-0.7685013 0 -1.5055313 0.30529785 -2.0489426 0.84869385c-0.54341125 0.5434265 -0.84869385 1.2804565 -0.84869385 2.0489502l0 0c0 1.6003113 1.2973175 2.897644 2.8976364 2.897644l0 0c1.6003189 0 2.8976364 -1.2973328 2.8976364 -2.897644z" fill-rule="evenodd"/><path fill="#000000" d="m236.49738 118.10236l0 0c0 -1.6003189 -1.2973175 -2.8976364 -2.897644 -2.8976364l0 0c-0.76849365 0 -1.5055237 0.3052826 -2.048935 0.84869385c-0.54341125 0.54341125 -0.84869385 1.2804413 -0.84869385 2.0489426l0 0c0 1.6003189 1.2973175 2.8976364 2.8976288 2.8976364l0 0c1.6003265 0 2.897644 -1.2973175 2.897644 -2.8976364z" fill-rule="evenodd"/><path stroke="#000000" stroke-width="1.0" stroke-linejoin="round" stroke-linecap="butt" d="m236.49738 118.10236l0 0c0 -1.6003189 -1.2973175 -2.8976364 -2.897644 -2.8976364l0 0c-0.76849365 0 -1.5055237 0.3052826 -2.048935 0.84869385c-0.54341125 0.54341125 -0.84869385 1.2804413 -0.84869385 2.0489426l0 0c0 1.6003189 1.2973175 2.8976364 2.8976288 2.8976364l0 0c1.6003265 0 2.897644 -1.2973175 2.897644 -2.8976364z" fill-rule="evenodd"/><path fill="#000000" d="m421.45932 39.401573l0 0c0 -1.6003189 -1.2973328 -2.8976364 -2.897644 -2.8976364l0 0c-0.76849365 0 -1.5055237 0.3052864 -2.0489502 0.84869766c-0.543396 0.54341507 -0.84869385 1.2804375 -0.84869385 2.0489388l0 0c0 1.6003227 1.2973328 2.8976402 2.897644 2.8976402l0 0c1.6003113 0 2.897644 -1.2973175 2.897644 -2.8976402z" fill-rule="evenodd"/><path stroke="#000000" stroke-width="1.0" stroke-linejoin="round" stroke-linecap="butt" d="m421.45932 39.401573l0 0c0 -1.6003189 -1.2973328 -2.8976364 -2.897644 -2.8976364l0 0c-0.76849365 0 -1.5055237 0.3052864 -2.0489502 0.84869766c-0.543396 0.54341507 -0.84869385 1.2804375 -0.84869385 2.0489388l0 0c0 1.6003227 1.2973328 2.8976402 2.897644 2.8976402l0 0c1.6003113 0 2.897644 -1.2973175 2.897644 -2.8976402z" fill-rule="evenodd"/><path fill="#000000" d="m297.95276 167.19423l0 0c0 -1.6003265 -1.2973328 -2.897644 -2.897644 -2.897644l0 0c-0.76849365 0 -1.5055237 0.3052826 -2.0489502 0.84869385c-0.543396 0.5434265 -0.84869385 1.2804413 -0.84869385 2.0489502l0 0c0 1.6003113 1.2973328 2.8976288 2.897644 2.8976288l0 0c1.6003113 0 2.897644 -1.2973175 2.897644 -2.8976288z" fill-rule="evenodd"/><path stroke="#000000" stroke-width="1.0" stroke-linejoin="round" stroke-linecap="butt" d="m297.95276 167.19423l0 0c0 -1.6003265 -1.2973328 -2.897644 -2.897644 -2.897644l0 0c-0.76849365 0 -1.5055237 0.3052826 -2.0489502 0.84869385c-0.543396 0.5434265 -0.84869385 1.2804413 -0.84869385 2.0489502l0 0c0 1.6003113 1.2973328 2.8976288 2.897644 2.8976288l0 0c1.6003113 0 2.897644 -1.2973175 2.897644 -2.8976288z" fill-rule="evenodd"/><path fill="#000000" fill-opacity="0.0" d="m235.49437 120.2634l57.511795 44.88188" fill-rule="evenodd"/><path stroke="#cc4125" stroke-width="1.0" stroke-linejoin="round" stroke-linecap="butt" d="m238.1961 122.37183l50.079956 39.0821" fill-rule="evenodd"/><path fill="#cc4125" stroke="#cc4125" stroke-width="1.0" stroke-linecap="butt" d="m238.1961 122.371826l1.5784454 -0.19469452l-3.1277008 -1.0143356l1.7439575 2.7874756z" fill-rule="evenodd"/><path fill="#cc4125" stroke="#cc4125" stroke-width="1.0" stroke-linecap="butt" d="m287.2599 162.75609l4.5937805 1.4898071l-2.561432 -4.094101z" fill-rule="evenodd"/><path fill="#000000" fill-opacity="0.0" d="m302.75067 151.49869l50.48816 0l0 35.55905l-50.48816 0z" fill-rule="evenodd"/><path fill="#000000" d="m312.62567 175.95494l0 -9.5625l1.078125 0l0 0.890625q0.375 -0.53125 0.84375 -0.78125q0.484375 -0.265625 1.15625 -0.265625q0.875 0 1.546875 0.453125q0.6875 0.453125 1.03125 1.28125q0.34375 0.828125 0.34375 1.828125q0 1.046875 -0.375 1.90625q-0.375 0.84375 -1.109375 1.296875q-0.71875 0.453125 -1.53125 0.453125q-0.578125 0 -1.046875 -0.25q-0.46875 -0.25 -0.765625 -0.625l0 3.375l-1.171875 0zm1.0625 -6.078125q0 1.34375 0.53125 1.984375q0.546875 0.625 1.3125 0.625q0.78125 0 1.34375 -0.65625q0.5625 -0.65625 0.5625 -2.046875q0 -1.3125 -0.546875 -1.96875q-0.546875 -0.671875 -1.296875 -0.671875q-0.75 0 -1.328125 0.703125q-0.578125 0.703125 -0.578125 2.03125z" fill-rule="nonzero"/><path fill="#000000" d="m319.7569 172.84557l0 -0.90625l0.78125 0l0 0.90625l-0.78125 0zm0 5.453125l0 -4.609375l0.78125 0l0 4.609375l-0.78125 0zm1.9560852 0l0 -4.609375l0.703125 0l0 0.65625q0.21875 -0.34375 0.578125 -0.546875q0.359375 -0.203125 0.8125 -0.203125q0.515625 0 0.84375 0.21875q0.328125 0.203125 0.46875 0.578125q0.546875 -0.796875 1.421875 -0.796875q0.671875 0 1.046875 0.375q0.375 0.375 0.375 1.171875l0 3.15625l-0.78125 0l0 -2.90625q0 -0.453125 -0.078125 -0.65625q-0.078125 -0.21875 -0.28125 -0.34375q-0.1875 -0.125 -0.46875 -0.125q-0.484375 0 -0.8125 0.328125q-0.3125 0.3125 -0.3125 1.03125l0 2.671875l-0.78125 0l0 -2.984375q0 -0.53125 -0.1875 -0.78125q-0.1875 -0.265625 -0.625 -0.265625q-0.328125 0 -0.609375 0.171875q-0.28125 0.171875 -0.40625 0.515625q-0.125 0.328125 -0.125 0.953125l0 2.390625l-0.78125 0zm10.408447 -0.5625q-0.4375 0.359375 -0.84375 0.515625q-0.390625 0.15625 -0.859375 0.15625q-0.75 0 -1.15625 -0.375q-0.40625 -0.375 -0.40625 -0.953125q0 -0.328125 0.140625 -0.609375q0.15625 -0.28125 0.40625 -0.453125q0.25 -0.171875 0.5625 -0.25q0.234375 -0.0625 0.6875 -0.125q0.953125 -0.109375 1.390625 -0.265625q0.015625 -0.15625 0.015625 -0.203125q0 -0.46875 -0.21875 -0.671875q-0.3125 -0.265625 -0.890625 -0.265625q-0.546875 0 -0.8125 0.203125q-0.265625 0.1875 -0.390625 0.671875l-0.765625 -0.109375q0.109375 -0.484375 0.34375 -0.78125q0.234375 -0.296875 0.6875 -0.453125q0.453125 -0.171875 1.046875 -0.171875q0.59375 0 0.953125 0.140625q0.375 0.140625 0.546875 0.34375q0.171875 0.203125 0.234375 0.53125q0.046875 0.203125 0.046875 0.71875l0 1.046875q0 1.078125 0.046875 1.375q0.046875 0.28125 0.203125 0.546875l-0.8125 0q-0.125 -0.25 -0.15625 -0.5625zm-0.078125 -1.75q-0.421875 0.171875 -1.265625 0.296875q-0.484375 0.0625 -0.6875 0.15625q-0.1875 0.09375 -0.296875 0.265625q-0.109375 0.15625 -0.109375 0.359375q0 0.3125 0.234375 0.53125q0.234375 0.203125 0.6875 0.203125q0.453125 0 0.796875 -0.203125q0.359375 -0.203125 0.515625 -0.546875q0.125 -0.265625 0.125 -0.78125l0 -0.28125zm1.8576355 2.6875l0.765625 0.125q0.046875 0.34375 0.265625 0.5q0.28125 0.21875 0.78125 0.21875q0.546875 0 0.84375 -0.21875q0.296875 -0.21875 0.40625 -0.59375q0.046875 -0.25 0.046875 -1.015625q-0.515625 0.609375 -1.265625 0.609375q-0.953125 0 -1.484375 -0.6875q-0.515625 -0.6875 -0.515625 -1.640625q0 -0.65625 0.234375 -1.203125q0.25 -0.5625 0.703125 -0.859375q0.453125 -0.3125 1.0625 -0.3125q0.8125 0 1.34375 0.65625l0 -0.5625l0.71875 0l0 3.984375q0 1.078125 -0.21875 1.515625q-0.21875 0.453125 -0.703125 0.71875q-0.46875 0.265625 -1.15625 0.265625q-0.828125 0 -1.34375 -0.375q-0.5 -0.375 -0.484375 -1.125zm0.65625 -2.765625q0 0.90625 0.359375 1.328125q0.359375 0.421875 0.890625 0.421875q0.546875 0 0.90625 -0.40625q0.359375 -0.421875 0.359375 -1.3125q0 -0.84375 -0.375 -1.265625q-0.375 -0.4375 -0.90625 -0.4375q-0.515625 0 -0.875 0.421875q-0.359375 0.421875 -0.359375 1.25zm7.576416 0.90625l0.8125 0.109375q-0.203125 0.703125 -0.71875 1.09375q-0.515625 0.390625 -1.3125 0.390625q-1.0 0 -1.59375 -0.625q-0.59375 -0.625 -0.59375 -1.75q0 -1.15625 0.59375 -1.796875q0.59375 -0.640625 1.546875 -0.640625q0.921875 0 1.5 0.625q0.59375 0.625 0.59375 1.765625q0 0.078125 0 0.203125l-3.4375 0q0.046875 0.765625 0.4375 1.171875q0.390625 0.40625 0.953125 0.40625q0.4375 0 0.734375 -0.21875q0.3125 -0.234375 0.484375 -0.734375zm-2.5625 -1.265625l2.578125 0q-0.0625 -0.578125 -0.296875 -0.859375q-0.375 -0.453125 -0.96875 -0.453125q-0.53125 0 -0.90625 0.359375q-0.359375 0.359375 -0.40625 0.953125z" fill-rule="nonzero"/><path fill="#000000" fill-opacity="0.0" d="m398.75592 33.501312l50.48816 0l0 35.55905l-50.48816 0z" fill-rule="evenodd"/><path fill="#000000" d="m408.63092 57.95756l0 -9.5625l1.078125 0l0 0.890625q0.375 -0.53125 0.84375 -0.78125q0.484375 -0.265625 1.15625 -0.265625q0.875 0 1.546875 0.453125q0.6875 0.453125 1.03125 1.28125q0.34375 0.828125 0.34375 1.828125q0 1.046875 -0.375 1.90625q-0.375 0.84375 -1.109375 1.296875q-0.71875 0.453125 -1.53125 0.453125q-0.578125 0 -1.046875 -0.25q-0.46875 -0.25 -0.765625 -0.625l0 3.375l-1.171875 0zm1.0625 -6.078125q0 1.34375 0.53125 1.984375q0.546875 0.625 1.3125 0.625q0.78125 0 1.34375 -0.65625q0.5625 -0.65625 0.5625 -2.046875q0 -1.3125 -0.546875 -1.96875q-0.546875 -0.671875 -1.296875 -0.671875q-0.75 0 -1.328125 0.703125q-0.578125 0.703125 -0.578125 2.03125z" fill-rule="nonzero"/><path fill="#000000" d="m415.46527 58.004436q0 -1.28125 0.703125 -1.890625q0.59375 -0.515625 1.453125 -0.515625q0.953125 0 1.546875 0.625q0.609375 0.609375 0.609375 1.71875q0 0.875 -0.265625 1.390625q-0.265625 0.515625 -0.78125 0.796875q-0.5 0.28125 -1.109375 0.28125q-0.96875 0 -1.5625 -0.625q-0.59375 -0.625 -0.59375 -1.78125zm0.796875 0q0 0.875 0.390625 1.328125q0.390625 0.4375 0.96875 0.4375q0.578125 0 0.96875 -0.4375q0.390625 -0.453125 0.390625 -1.359375q0 -0.859375 -0.390625 -1.296875q-0.390625 -0.4375 -0.96875 -0.4375q-0.578125 0 -0.96875 0.4375q-0.390625 0.4375 -0.390625 1.328125zm5.1388855 2.296875l-0.71875 0l0 -6.359375l0.78125 0l0 2.265625q0.5 -0.609375 1.265625 -0.609375q0.421875 0 0.796875 0.171875q0.390625 0.171875 0.625 0.484375q0.25 0.296875 0.390625 0.734375q0.140625 0.4375 0.140625 0.9375q0 1.1875 -0.59375 1.84375q-0.578125 0.640625 -1.40625 0.640625q-0.8125 0 -1.28125 -0.6875l0 0.578125zm0 -2.328125q0 0.8125 0.21875 1.1875q0.375 0.609375 1.0 0.609375q0.515625 0 0.890625 -0.4375q0.375 -0.453125 0.375 -1.34375q0 -0.890625 -0.359375 -1.3125q-0.359375 -0.4375 -0.875 -0.4375q-0.5 0 -0.875 0.453125q-0.375 0.4375 -0.375 1.28125zm4.217041 -3.125l0 -0.90625l0.78125 0l0 0.90625l-0.78125 0zm-0.984375 7.234375l0.140625 -0.65625q0.234375 0.0625 0.375 0.0625q0.234375 0 0.34375 -0.171875q0.125 -0.15625 0.125 -0.78125l0 -4.84375l0.78125 0l0 4.859375q0 0.84375 -0.21875 1.1875q-0.28125 0.4375 -0.9375 0.4375q-0.3125 0 -0.609375 -0.09375zm6.112335 -3.265625l0.8125 0.109375q-0.203125 0.703125 -0.71875 1.09375q-0.515625 0.390625 -1.3125 0.390625q-1.0 0 -1.59375 -0.625q-0.59375 -0.625 -0.59375 -1.75q0 -1.15625 0.59375 -1.796875q0.59375 -0.640625 1.546875 -0.640625q0.921875 0 1.5 0.625q0.59375 0.625 0.59375 1.765625q0 0.078125 0 0.203125l-3.4375 0q0.046875 0.765625 0.4375 1.171875q0.390625 0.40625 0.953125 0.40625q0.4375 0 0.734375 -0.21875q0.3125 -0.234375 0.484375 -0.734375zm-2.5625 -1.265625l2.578125 0q-0.0625 -0.578125 -0.296875 -0.859375q-0.375 -0.453125 -0.96875 -0.453125q-0.53125 0 -0.90625 0.359375q-0.359375 0.359375 -0.40625 0.953125zm7.3576355 1.0625l0.765625 0.09375q-0.125 0.796875 -0.65625 1.25q-0.515625 0.453125 -1.265625 0.453125q-0.9375 0 -1.515625 -0.609375q-0.578125 -0.625 -0.578125 -1.78125q0 -0.75 0.25 -1.296875q0.25 -0.5625 0.75 -0.84375q0.5 -0.28125 1.09375 -0.28125q0.75 0 1.21875 0.375q0.484375 0.375 0.625 1.078125l-0.765625 0.109375q-0.09375 -0.453125 -0.375 -0.6875q-0.28125 -0.234375 -0.671875 -0.234375q-0.578125 0 -0.953125 0.421875q-0.375 0.421875 -0.375 1.328125q0 0.9375 0.359375 1.359375q0.359375 0.421875 0.9375 0.421875q0.453125 0 0.75 -0.28125q0.3125 -0.28125 0.40625 -0.875zm3.124939 0.984375l0.125 0.6875q-0.328125 0.078125 -0.59375 0.078125q-0.421875 0 -0.65625 -0.125q-0.234375 -0.140625 -0.328125 -0.359375q-0.09375 -0.21875 -0.09375 -0.921875l0 -2.65625l-0.578125 0l0 -0.609375l0.578125 0l0 -1.125l0.765625 -0.46875l0 1.59375l0.78125 0l0 0.609375l-0.78125 0l0 2.703125q0 0.328125 0.046875 0.421875q0.046875 0.09375 0.125 0.15625q0.09375 0.046875 0.28125 0.046875q0.125 0 0.328125 -0.03125z" fill-rule="nonzero"/><path fill="#000000" fill-opacity="0.0" d="m202.24934 79.64567l65.25984 0l0 35.55906l-65.25984 0z" fill-rule="evenodd"/><path fill="#000000" d="m212.12434 104.10192l0 -9.5625l1.078125 0l0 0.890625q0.375 -0.53125 0.84375 -0.78125q0.484375 -0.265625 1.15625 -0.265625q0.875 0 1.546875 0.453125q0.6875 0.453125 1.03125 1.28125q0.34375 0.828125 0.34375 1.828125q0 1.046875 -0.375 1.90625q-0.375 0.84375 -1.109375 1.296875q-0.71875 0.453125 -1.53125 0.453125q-0.578125 0 -1.046875 -0.25q-0.46875 -0.25 -0.765625 -0.625l0 3.375l-1.171875 0zm1.0625 -6.078125q0 1.34375 0.53125 1.984375q0.546875 0.625 1.3125 0.625q0.78125 0 1.34375 -0.65625q0.5625 -0.65625 0.5625 -2.046875q0 -1.3125 -0.546875 -1.96875q-0.546875 -0.671875 -1.296875 -0.671875q-0.75 0 -1.328125 0.703125q-0.578125 0.703125 -0.578125 2.03125z" fill-rule="nonzero"/><path fill="#000000" d="m219.23994 108.211296l0 -6.375l0.71875 0l0 0.609375q0.25 -0.359375 0.5625 -0.53125q0.328125 -0.171875 0.765625 -0.171875q0.59375 0 1.046875 0.3125q0.453125 0.296875 0.671875 0.84375q0.234375 0.546875 0.234375 1.21875q0 0.703125 -0.25 1.265625q-0.25 0.5625 -0.734375 0.875q-0.484375 0.296875 -1.015625 0.296875q-0.390625 0 -0.703125 -0.15625q-0.3125 -0.171875 -0.515625 -0.4375l0 2.25l-0.78125 0zm0.71875 -4.046875q0 0.890625 0.359375 1.328125q0.359375 0.421875 0.859375 0.421875q0.53125 0 0.890625 -0.4375q0.375 -0.453125 0.375 -1.375q0 -0.875 -0.359375 -1.3125q-0.359375 -0.4375 -0.859375 -0.4375q-0.5 0 -0.890625 0.46875q-0.375 0.46875 -0.375 1.34375zm4.2170258 2.28125l0 -4.609375l0.703125 0l0 0.703125q0.265625 -0.484375 0.484375 -0.640625q0.234375 -0.15625 0.515625 -0.15625q0.390625 0 0.796875 0.25l-0.265625 0.71875q-0.296875 -0.171875 -0.578125 -0.171875q-0.25 0 -0.453125 0.15625q-0.203125 0.15625 -0.296875 0.4375q-0.125 0.40625 -0.125 0.90625l0 2.40625l-0.78125 0zm2.6741486 -2.296875q0 -1.28125 0.703125 -1.890625q0.59375 -0.515625 1.453125 -0.515625q0.953125 0 1.546875 0.625q0.609375 0.609375 0.609375 1.71875q0 0.875 -0.265625 1.390625q-0.265625 0.515625 -0.78125 0.796875q-0.5 0.28125 -1.109375 0.28125q-0.96875 0 -1.5625 -0.625q-0.59375 -0.625 -0.59375 -1.78125zm0.796875 0q0 0.875 0.390625 1.328125q0.390625 0.4375 0.96875 0.4375q0.578125 0 0.96875 -0.4375q0.390625 -0.453125 0.390625 -1.359375q0 -0.859375 -0.390625 -1.296875q-0.390625 -0.4375 -0.96875 -0.4375q-0.578125 0 -0.96875 0.4375q-0.390625 0.4375 -0.390625 1.328125zm4.4201508 -3.15625l0 -0.90625l0.78125 0l0 0.90625l-0.78125 0zm-0.984375 7.234375l0.140625 -0.65625q0.234375 0.0625 0.375 0.0625q0.234375 0 0.34375 -0.171875q0.125 -0.15625 0.125 -0.78125l0 -4.84375l0.78125 0l0 4.859375q0 0.84375 -0.21875 1.1875q-0.28125 0.4375 -0.9375 0.4375q-0.3125 0 -0.609375 -0.09375zm6.112335 -3.265625l0.8125 0.109375q-0.203125 0.703125 -0.71875 1.09375q-0.515625 0.390625 -1.3125 0.390625q-1.0 0 -1.59375 -0.625q-0.59375 -0.625 -0.59375 -1.75q0 -1.15625 0.59375 -1.796875q0.59375 -0.640625 1.546875 -0.640625q0.921875 0 1.5 0.625q0.59375 0.625 0.59375 1.765625q0 0.078125 0 0.203125l-3.4375 0q0.046875 0.765625 0.4375 1.171875q0.390625 0.40625 0.953125 0.40625q0.4375 0 0.734375 -0.21875q0.3125 -0.234375 0.484375 -0.734375zm-2.5625 -1.265625l2.578125 0q-0.0625 -0.578125 -0.296875 -0.859375q-0.375 -0.453125 -0.96875 -0.453125q-0.53125 0 -0.90625 0.359375q-0.359375 0.359375 -0.40625 0.953125zm7.3576508 1.0625l0.765625 0.09375q-0.125 0.796875 -0.65625 1.25q-0.515625 0.453125 -1.265625 0.453125q-0.9375 0 -1.515625 -0.609375q-0.578125 -0.625 -0.578125 -1.78125q0 -0.75 0.25 -1.296875q0.25 -0.5625 0.75 -0.84375q0.5 -0.28125 1.09375 -0.28125q0.75 0 1.21875 0.375q0.484375 0.375 0.625 1.078125l-0.765625 0.109375q-0.09375 -0.453125 -0.375 -0.6875q-0.28125 -0.234375 -0.671875 -0.234375q-0.578125 0 -0.953125 0.421875q-0.375 0.421875 -0.375 1.328125q0 0.9375 0.359375 1.359375q0.359375 0.421875 0.9375 0.421875q0.453125 0 0.75 -0.28125q0.3125 -0.28125 0.40625 -0.875zm3.1249237 0.984375l0.125 0.6875q-0.328125 0.078125 -0.59375 0.078125q-0.421875 0 -0.65625 -0.125q-0.234375 -0.140625 -0.328125 -0.359375q-0.09375 -0.21875 -0.09375 -0.921875l0 -2.65625l-0.578125 0l0 -0.609375l0.578125 0l0 -1.125l0.765625 -0.46875l0 1.59375l0.78125 0l0 0.609375l-0.78125 0l0 2.703125q0 0.328125 0.046875 0.421875q0.046875 0.09375 0.125 0.15625q0.09375 0.046875 0.28125 0.046875q0.125 0 0.328125 -0.03125zm3.9188385 -0.78125l0.8125 0.109375q-0.203125 0.703125 -0.71875 1.09375q-0.515625 0.390625 -1.3125 0.390625q-1.0 0 -1.59375 -0.625q-0.59375 -0.625 -0.59375 -1.75q0 -1.15625 0.59375 -1.796875q0.59375 -0.640625 1.546875 -0.640625q0.921875 0 1.5 0.625q0.59375 0.625 0.59375 1.765625q0 0.078125 0 0.203125l-3.4375 0q0.046875 0.765625 0.4375 1.171875q0.390625 0.40625 0.953125 0.40625q0.4375 0 0.734375 -0.21875q0.3125 -0.234375 0.484375 -0.734375zm-2.5625 -1.265625l2.578125 0q-0.0625 -0.578125 -0.296875 -0.859375q-0.375 -0.453125 -0.96875 -0.453125q-0.53125 0 -0.90625 0.359375q-0.359375 0.359375 -0.40625 0.953125zm7.3420258 2.75l0 -0.578125q-0.4375 0.6875 -1.296875 0.6875q-0.546875 0 -1.015625 -0.296875q-0.453125 -0.3125 -0.71875 -0.859375q-0.25 -0.546875 -0.25 -1.25q0 -0.6875 0.234375 -1.25q0.234375 -0.5625 0.6875 -0.859375q0.46875 -0.296875 1.03125 -0.296875q0.421875 0 0.734375 0.171875q0.328125 0.171875 0.53125 0.453125l0 -2.28125l0.78125 0l0 6.359375l-0.71875 0zm-2.46875 -2.296875q0 0.890625 0.359375 1.328125q0.375 0.4375 0.890625 0.4375q0.515625 0 0.859375 -0.421875q0.359375 -0.421875 0.359375 -1.28125q0 -0.9375 -0.359375 -1.375q-0.359375 -0.453125 -0.890625 -0.453125q-0.53125 0 -0.875 0.421875q-0.34375 0.421875 -0.34375 1.34375z" fill-rule="nonzero"/><path fill="#000000" fill-opacity="0.0" d="m118.83727 390.4987l27.149605 0l0 35.55905l-27.149605 0z" fill-rule="evenodd"/><path fill="#000000" d="m128.27477 408.84555q0 -1.921875 1.078125 -2.84375q0.890625 -0.765625 2.171875 -0.765625q1.421875 0 2.328125 0.9375q0.90625 0.921875 0.90625 2.578125q0 1.328125 -0.40625 2.09375q-0.390625 0.765625 -1.15625 1.1875q-0.765625 0.421875 -1.671875 0.421875q-1.453125 0 -2.359375 -0.921875q-0.890625 -0.9375 -0.890625 -2.6875zm1.203125 0q0 1.328125 0.578125 1.984375q0.59375 0.65625 1.46875 0.65625q0.875 0 1.453125 -0.65625q0.578125 -0.671875 0.578125 -2.03125q0 -1.28125 -0.59375 -1.9375q-0.578125 -0.65625 -1.4375 -0.65625q-0.875 0 -1.46875 0.65625q-0.578125 0.65625 -0.578125 1.984375z" fill-rule="nonzero"/><path fill="#000000" fill-opacity="0.0" d="m18.144358 187.05774l50.48819 0l0 35.55905l-50.48819 0z" fill-rule="evenodd"/><path fill="#000000" d="m27.581858 205.40462q0 -1.921875 1.078125 -2.84375q0.890625 -0.765625 2.171875 -0.765625q1.4218731 0 2.328123 0.9375q0.90625 0.921875 0.90625 2.578125q0 1.328125 -0.40625 2.09375q-0.390625 0.765625 -1.15625 1.1875q-0.7656231 0.421875 -1.6718731 0.421875q-1.453125 0 -2.359375 -0.921875q-0.890625 -0.9375 -0.890625 -2.6875zm1.203125 0q0 1.328125 0.578125 1.984375q0.59375 0.65625 1.46875 0.65625q0.875 0 1.4531231 -0.65625q0.578125 -0.671875 0.578125 -2.03125q0 -1.28125 -0.59375 -1.9375q-0.5781231 -0.65625 -1.4374981 -0.65625q-0.875 0 -1.46875 0.65625q-0.578125 0.65625 -0.578125 1.984375z" fill-rule="nonzero"/><path fill="#000000" fill-opacity="0.0" d="m208.74803 134.5328l89.19685 0l0 35.55905l-89.19685 0z" fill-rule="evenodd"/><path fill="#cc4125" d="m218.6074 156.33281l0 -6.90625l1.0625 0l0 1.046875q0.40625 -0.734375 0.734375 -0.96875q0.34375 -0.234375 0.765625 -0.234375q0.59375 0 1.203125 0.375l-0.40625 1.078125q-0.4375 -0.25 -0.859375 -0.25q-0.390625 0 -0.703125 0.234375q-0.296875 0.234375 -0.421875 0.640625q-0.203125 0.625 -0.203125 1.359375l0 3.625l-1.171875 0zm9.18837 -2.21875l1.203125 0.140625q-0.28125 1.0625 -1.0625 1.65625q-0.765625 0.578125 -1.96875 0.578125q-1.515625 0 -2.40625 -0.9375q-0.890625 -0.9375 -0.890625 -2.609375q0 -1.75 0.890625 -2.703125q0.90625 -0.96875 2.34375 -0.96875q1.390625 0 2.265625 0.9375q0.875 0.9375 0.875 2.65625q0 0.109375 0 0.3125l-5.15625 0q0.0625 1.140625 0.640625 1.75q0.578125 0.59375 1.4375 0.59375q0.65625 0 1.109375 -0.328125q0.453125 -0.34375 0.71875 -1.078125zm-3.84375 -1.90625l3.859375 0q-0.078125 -0.859375 -0.4375 -1.296875q-0.5625 -0.6875 -1.453125 -0.6875q-0.8125 0 -1.359375 0.546875q-0.546875 0.53125 -0.609375 1.4375zm6.5218506 6.78125l0 -9.5625l1.078125 0l0 0.890625q0.375 -0.53125 0.84375 -0.78125q0.484375 -0.265625 1.15625 -0.265625q0.875 0 1.546875 0.453125q0.6875 0.453125 1.03125 1.28125q0.34375 0.828125 0.34375 1.828125q0 1.046875 -0.375 1.90625q-0.375 0.84375 -1.109375 1.296875q-0.71875 0.453125 -1.53125 0.453125q-0.578125 0 -1.046875 -0.25q-0.46875 -0.25 -0.765625 -0.625l0 3.375l-1.171875 0zm1.0625 -6.078125q0 1.34375 0.53125 1.984375q0.546875 0.625 1.3125 0.625q0.78125 0 1.34375 -0.65625q0.5625 -0.65625 0.5625 -2.046875q0 -1.3125 -0.546875 -1.96875q-0.546875 -0.671875 -1.296875 -0.671875q-0.75 0 -1.328125 0.703125q-0.578125 0.703125 -0.578125 2.03125zm6.3343506 3.421875l0 -6.90625l1.0625 0l0 1.046875q0.40625 -0.734375 0.734375 -0.96875q0.34375 -0.234375 0.765625 -0.234375q0.59375 0 1.203125 0.375l-0.40625 1.078125q-0.4375 -0.25 -0.859375 -0.25q-0.390625 0 -0.703125 0.234375q-0.296875 0.234375 -0.421875 0.640625q-0.203125 0.625 -0.203125 1.359375l0 3.625l-1.171875 0zm4.0164948 -3.453125q0 -1.921875 1.078125 -2.84375q0.890625 -0.765625 2.171875 -0.765625q1.421875 0 2.328125 0.9375q0.90625 0.921875 0.90625 2.578125q0 1.328125 -0.40625 2.09375q-0.390625 0.765625 -1.15625 1.1875q-0.765625 0.421875 -1.671875 0.421875q-1.453125 0 -2.359375 -0.921875q-0.890625 -0.9375 -0.890625 -2.6875zm1.203125 0q0 1.328125 0.578125 1.984375q0.59375 0.65625 1.46875 0.65625q0.875 0 1.453125 -0.65625q0.578125 -0.671875 0.578125 -2.03125q0 -1.28125 -0.59375 -1.9375q-0.578125 -0.65625 -1.4375 -0.65625q-0.875 0 -1.46875 0.65625q-0.578125 0.65625 -0.578125 1.984375zm6.6468506 -4.734375l0 -1.359375l1.171875 0l0 1.359375l-1.171875 0zm-1.484375 10.875l0.21875 -1.0q0.359375 0.09375 0.546875 0.09375q0.359375 0 0.53125 -0.25q0.1875 -0.234375 0.1875 -1.1875l0 -7.25l1.171875 0l0 7.28125q0 1.28125 -0.328125 1.78125q-0.4375 0.65625 -1.40625 0.65625q-0.484375 0 -0.921875 -0.125z" fill-rule="nonzero"/><path fill="#cc4125" d="m255.55766 159.84843l0.81248474 0.109375q-0.203125 0.703125 -0.71873474 1.09375q-0.515625 0.390625 -1.3125 0.390625q-1.0 0 -1.59375 -0.625q-0.59375 -0.625 -0.59375 -1.75q0 -1.15625 0.59375 -1.796875q0.59375 -0.640625 1.546875 -0.640625q0.921875 0 1.5 0.625q0.59373474 0.625 0.59373474 1.765625q0 0.078125 0 0.203125l-3.4374847 0q0.046875 0.765625 0.4375 1.171875q0.390625 0.40625 0.953125 0.40625q0.4375 0 0.734375 -0.21875q0.3125 -0.234375 0.484375 -0.734375zm-2.5625 -1.265625l2.578125 0q-0.0625 -0.578125 -0.296875 -0.859375q-0.375 -0.453125 -0.96875 -0.453125q-0.53125 0 -0.90625 0.359375q-0.359375 0.359375 -0.40625 0.953125zm4.3420258 2.75l0 -4.609375l0.703125 0l0 0.703125q0.265625 -0.484375 0.484375 -0.640625q0.234375 -0.15625 0.515625 -0.15625q0.390625 0 0.796875 0.25l-0.265625 0.71875q-0.296875 -0.171875 -0.578125 -0.171875q-0.25 0 -0.453125 0.15625q-0.203125 0.15625 -0.296875 0.4375q-0.125 0.40625 -0.125 0.90625l0 2.40625l-0.78125 0zm2.9553833 0l0 -4.609375l0.703125 0l0 0.703125q0.265625 -0.484375 0.484375 -0.640625q0.234375 -0.15625 0.515625 -0.15625q0.390625 0 0.796875 0.25l-0.265625 0.71875q-0.296875 -0.171875 -0.578125 -0.171875q-0.25 0 -0.453125 0.15625q-0.203125 0.15625 -0.296875 0.4375q-0.125 0.40625 -0.125 0.90625l0 2.40625l-0.78125 0zm2.6741638 -2.296875q0 -1.28125 0.703125 -1.890625q0.59375 -0.515625 1.453125 -0.515625q0.953125 0 1.546875 0.625q0.609375 0.609375 0.609375 1.71875q0 0.875 -0.265625 1.390625q-0.265625 0.515625 -0.78125 0.796875q-0.5 0.28125 -1.109375 0.28125q-0.96875 0 -1.5625 -0.625q-0.59375 -0.625 -0.59375 -1.78125zm0.796875 0q0 0.875 0.390625 1.328125q0.390625 0.4375 0.96875 0.4375q0.578125 0 0.96875 -0.4375q0.390625 -0.453125 0.390625 -1.359375q0 -0.859375 -0.390625 -1.296875q-0.390625 -0.4375 -0.96875 -0.4375q-0.578125 0 -0.96875 0.4375q-0.390625 0.4375 -0.390625 1.328125zm4.4201355 2.296875l0 -4.609375l0.703125 0l0 0.703125q0.265625 -0.484375 0.484375 -0.640625q0.234375 -0.15625 0.515625 -0.15625q0.390625 0 0.796875 0.25l-0.265625 0.71875q-0.296875 -0.171875 -0.578125 -0.171875q-0.25 0 -0.453125 0.15625q-0.203125 0.15625 -0.296875 0.4375q-0.125 0.40625 -0.125 0.90625l0 2.40625l-0.78125 0z" fill-rule="nonzero"/></g></svg>